####
#
# OBJ File Generated by Meshlab
#
####
# Object CityCarSedanMod_brakeLights.obj
#
# Vertices: 60
# Faces: 56
#
####
mtllib ./CityCarSedanMod_brakeLights.obj.mtl

vn 0.065401 -0.000000 0.997859
v 453.544037 108.605560 197.858078
vn 0.065404 -0.000000 0.997859
v 453.544037 140.801544 197.858093
vn 0.000000 -0.000000 1.000000
v 429.093781 140.801544 197.858093
vn 0.000000 -0.000000 1.000000
v 420.268005 139.807129 197.858093
vn 0.000000 -0.000000 1.000000
v 412.204407 136.985535 197.858093
vn 0.000000 -0.000000 1.000000
v 404.970825 132.440399 197.858093
vn 0.000000 -0.000000 1.000000
v 398.929993 126.399590 197.858093
vn 0.000000 -0.000000 1.000000
v 394.384857 119.166016 197.858093
vn 0.000000 -0.000000 1.000000
v 391.563293 111.102417 197.858093
vn 0.000000 -0.000000 1.000000
v 391.281952 108.605560 197.858093
vn 1.000000 0.000000 0.000000
v 462.639709 108.605560 124.475967
vn 1.000000 0.000000 0.000000
v 462.639709 111.102417 124.757301
vn 1.000000 0.000000 0.000000
v 462.639709 119.166016 127.578880
vn 1.000000 0.000000 0.000000
v 462.639709 126.399590 132.124023
vn 1.000000 0.000000 0.000000
v 462.639709 132.440399 138.164841
vn 1.000000 0.000000 0.000000
v 462.639709 136.985550 145.398407
vn 1.000000 0.000000 0.000000
v 462.639709 139.807129 153.462021
vn 1.000000 0.000000 0.000000
v 462.639709 140.801575 162.287842
vn 0.997859 -0.000000 0.065405
v 462.639709 140.801544 188.762466
vn 0.997859 -0.000000 0.065406
v 462.639709 108.605560 188.762451
vn 0.258818 -0.000000 0.965926
v 455.898193 108.605560 197.548157
vn 0.258821 0.000000 0.965925
v 455.898193 140.801544 197.548157
vn 0.500000 0.000000 0.866025
v 458.091888 108.605560 196.639496
vn 0.500002 0.000000 0.866024
v 458.091888 140.801544 196.639496
vn 0.707110 0.000000 0.707104
v 459.975677 108.605560 195.194016
vn 0.707106 0.000000 0.707108
v 459.975616 140.801544 195.194046
vn 0.866027 0.000000 0.499997
v 461.421112 108.605560 193.310257
vn 0.866022 -0.000000 0.500005
v 461.421112 140.801544 193.310272
vn 0.965925 -0.000000 0.258822
v 462.329773 108.605560 191.116562
vn 0.965925 -0.000000 0.258823
v 462.329773 140.801544 191.116592
vn 0.065404 0.000000 -0.997859
v 453.544037 108.605560 -197.858582
vn 0.000000 0.000000 -1.000000
v 391.281952 108.605560 -197.858582
vn 0.000000 0.000000 -1.000000
v 391.563293 111.102417 -197.858582
vn 0.000000 0.000000 -1.000000
v 394.384857 119.166016 -197.858582
vn 0.000000 0.000000 -1.000000
v 398.929993 126.399590 -197.858582
vn 0.000000 0.000000 -1.000000
v 404.970825 132.440399 -197.858582
vn 0.000000 0.000000 -1.000000
v 412.204407 136.985535 -197.858582
vn 0.000000 0.000000 -1.000000
v 420.268005 139.807129 -197.858582
vn 0.000000 0.000000 -1.000000
v 429.093781 140.801544 -197.858582
vn 0.065395 -0.000001 -0.997859
v 453.544037 140.801544 -197.858582
vn 1.000000 0.000000 0.000000
v 462.639709 108.605560 -124.476471
vn 0.997859 -0.000000 -0.065406
v 462.639709 108.605560 -188.762955
vn 0.997859 -0.000000 -0.065406
v 462.639709 140.801544 -188.762985
vn 1.000000 0.000000 0.000000
v 462.639709 140.801575 -162.288361
vn 1.000000 0.000000 0.000000
v 462.639709 139.807129 -153.462524
vn 1.000000 0.000000 0.000000
v 462.639709 136.985550 -145.398926
vn 1.000000 0.000000 0.000000
v 462.639709 132.440399 -138.165359
vn 1.000000 0.000000 0.000000
v 462.639709 126.399590 -132.124512
vn 1.000000 0.000000 0.000000
v 462.639709 119.166016 -127.579376
vn 1.000000 0.000000 0.000000
v 462.639709 111.102417 -124.757812
vn 0.258820 -0.000001 -0.965926
v 455.898193 140.801544 -197.548691
vn 0.258820 -0.000001 -0.965926
v 455.898193 108.605560 -197.548645
vn 0.500008 0.000001 -0.866021
v 458.091888 140.801544 -196.639984
vn 0.499994 -0.000001 -0.866029
v 458.091888 108.605560 -196.639984
vn 0.707103 0.000000 -0.707111
v 459.975616 140.801544 -195.194550
vn 0.707109 0.000001 -0.707105
v 459.975677 108.605560 -195.194550
vn 0.866022 -0.000001 -0.500006
v 461.421112 140.801544 -193.310791
vn 0.866029 0.000000 -0.499993
v 461.421112 108.605560 -193.310745
vn 0.965925 -0.000000 -0.258822
v 462.329773 140.801544 -191.117096
vn 0.965925 -0.000000 -0.258823
v 462.329773 108.605560 -191.117065
# 60 vertices, 0 vertices normals


usemtl material_0
vt 0.242066 0.538657
vt 0.140476 0.536808
vt 0.141881 0.459659
f 1/1/1 2/2/2 3/3/3
vt 0.145525 0.431867
f 1/1/1 3/3/3 4/4/4
vt 0.154891 0.406586
f 1/1/1 4/4/4 5/5/5
vt 0.169648 0.384023
f 1/1/1 5/5/5 6/6/6
vt 0.189056 0.365309
f 1/1/1 6/6/6 7/7/7
vt 0.212142 0.351382
f 1/1/1 7/7/7 8/8/8
vt 0.237747 0.342943
f 1/1/1 8/8/8 9/9/9
vt 0.245642 0.342198
f 1/1/1 9/9/9 10/10/10
vt 0.987844 0.345617
vt 0.986972 0.353366
vt 0.978218 0.378389
f 11/11/11 12/12/12 13/13/13
vt 0.964116 0.400837
f 11/11/11 13/13/13 14/14/14
vt 0.945372 0.419584
f 11/11/11 14/14/14 15/15/15
vt 0.922926 0.433690
f 11/11/11 15/15/15 16/16/16
vt 0.897905 0.442448
f 11/11/11 16/16/16 17/17/17
vt 0.870517 0.445536
f 11/11/11 17/17/17 18/18/18
vt 0.788363 0.445543
f 11/11/11 18/18/18 19/19/19
vt 0.788354 0.345634
f 11/11/11 19/19/19 20/20/20
vt 0.241930 0.546150
f 2/2/2 1/1/1 21/21/21
vt 0.140340 0.544300
f 2/2/2 21/21/21 22/22/22
vt 0.241793 0.553641
f 22/22/22 21/21/21 23/23/23
vt 0.140203 0.551793
f 22/22/22 23/23/23 24/24/24
vt 0.241657 0.561134
f 24/24/24 23/23/23 25/25/25
vt 0.140067 0.559285
f 24/24/24 25/25/25 26/26/26
vt 0.766257 0.445545
vt 0.766249 0.345636
vt 0.773617 0.345635
f 26/27/26 25/28/25 27/29/27
vt 0.773626 0.445544
f 26/27/26 27/29/27 28/30/28
vt 0.780985 0.345634
f 28/30/28 27/29/27 29/31/29
vt 0.780994 0.445543
f 28/30/28 29/31/29 30/32/30
f 30/32/30 29/31/29 20/20/20
f 30/32/30 20/20/20 19/19/19
vt 0.143164 0.363543
vt 0.140053 0.560010
vt 0.132188 0.558997
f 31/33/31 32/34/32 33/35/33
vt 0.106885 0.549691
f 31/33/31 33/35/33 34/36/34
vt 0.084286 0.534987
f 31/33/31 34/36/34 35/37/35
vt 0.065527 0.515624
f 31/33/31 35/37/35 36/38/36
vt 0.051546 0.492571
f 31/33/31 36/38/36 37/39/37
vt 0.043045 0.466986
f 31/33/31 37/39/37 38/40/38
vt 0.040349 0.439086
f 31/33/31 38/40/38 39/41/39
vt 0.041570 0.361934
f 31/33/31 39/41/39 40/42/40
vt 0.765719 0.446560
vt 0.965210 0.446568
vt 0.965207 0.546476
f 41/43/41 42/44/42 43/45/43
vt 0.883052 0.546473
f 41/43/41 43/45/43 44/46/44
vt 0.855664 0.543387
f 41/43/41 44/46/44 45/47/45
vt 0.830642 0.534630
f 41/43/41 45/47/45 46/48/46
vt 0.808196 0.520525
f 41/43/41 46/48/46 47/49/47
vt 0.789451 0.501779
f 41/43/41 47/49/47 48/50/48
vt 0.775347 0.479331
f 41/43/41 48/50/48 49/51/49
vt 0.766592 0.454308
f 41/43/41 49/51/49 50/52/50
vt 0.041689 0.354441
vt 0.143283 0.356050
f 40/42/40 51/53/51 52/54/52
f 40/42/40 52/54/52 31/33/31
vt 0.041808 0.346949
vt 0.143401 0.348557
f 51/53/51 53/55/53 54/56/54
f 51/53/51 54/56/54 52/54/52
vt 0.041926 0.339456
vt 0.143520 0.341065
f 53/55/53 55/57/55 56/58/56
f 53/55/53 56/58/56 54/56/54
vt 0.987312 0.546477
vt 0.979943 0.546477
vt 0.979947 0.446568
f 55/59/55 57/60/57 58/61/58
vt 0.987315 0.446568
f 55/59/55 58/61/58 56/62/56
vt 0.972575 0.546477
vt 0.972579 0.446568
f 57/60/57 59/63/59 60/64/60
f 57/60/57 60/64/60 58/61/58
f 59/63/59 43/45/43 42/44/42
f 59/63/59 42/44/42 60/64/60
# 56 faces, 64 coords texture

# End of File
